<svg width="527" height="80" viewBox="240 0 627 180" fill="none" xmlns="http://www.w3.org/2000/svg">
<path d="M300.16 96.352C299.456 96.352 298.624 96.224 297.664 95.968C296.768 95.776 295.872 95.392 294.976 94.816C294.08 94.304 293.344 93.536 292.768 92.512C292.192 91.552 291.904 90.272 291.904 88.672C291.904 86.432 292.448 83.488 293.536 79.84C294.624 76.128 295.872 72.032 297.28 67.552C298.368 64.096 299.424 60.512 300.448 56.8C301.472 53.088 302.304 49.376 302.944 45.664C303.648 41.952 304 38.4 304 35.008C304 32.64 303.904 30.432 303.712 28.384C303.584 26.336 303.104 24.704 302.272 23.488C301.504 22.208 300.16 21.568 298.24 21.568C296.448 21.568 294.912 22.112 293.632 23.2C292.416 24.224 291.392 25.568 290.56 27.232C289.792 28.896 289.216 30.656 288.832 32.512C288.512 34.368 288.352 36.096 288.352 37.696C288.352 39.808 288.64 41.536 289.216 42.88C286.72 42.88 284.96 42.208 283.936 40.864C282.912 39.456 282.4 37.824 282.4 35.968C282.4 33.984 282.848 32 283.744 30.016C284.704 28.032 285.984 26.208 287.584 24.544C289.248 22.816 291.136 21.44 293.248 20.416C295.36 19.392 297.6 18.88 299.968 18.88C303.936 18.88 306.88 20.448 308.8 23.584C310.784 26.656 311.776 30.784 311.776 35.968C311.776 40.64 311.104 45.6 309.76 50.848C308.48 56.032 307.04 61.088 305.44 66.016C304.416 69.216 303.424 72.288 302.464 75.232C301.568 78.112 300.832 80.768 300.256 83.2C299.68 85.632 299.392 87.776 299.392 89.632C299.392 90.848 299.584 91.776 299.968 92.416C300.352 93.056 301.12 93.376 302.272 93.376C303.872 93.376 305.632 92.608 307.552 91.072C309.536 89.6 311.52 87.584 313.504 85.024C315.552 82.464 317.504 79.648 319.36 76.576C321.28 73.44 323.008 70.24 324.544 66.976C326.144 63.712 327.456 60.608 328.48 57.664C329.568 54.72 330.24 52.192 330.496 50.08C332.608 50.08 334.08 50.624 334.912 51.712C335.808 52.8 336.256 53.824 336.256 54.784C336.256 55.808 335.84 57.376 335.008 59.488C334.176 61.6 333.184 63.968 332.032 66.592C331.072 68.896 330.08 71.36 329.056 73.984C328.096 76.608 327.264 79.232 326.56 81.856C325.92 84.48 325.6 86.976 325.6 89.344C325.6 90.56 325.76 91.52 326.08 92.224C326.4 92.992 327.136 93.376 328.288 93.376C330.08 93.376 332.16 92.448 334.528 90.592C336.896 88.8 339.328 86.336 341.824 83.2C344.384 80 346.848 76.416 349.216 72.448C351.648 68.48 353.824 64.352 355.744 60.064C357.664 55.712 359.2 51.456 360.352 47.296C361.504 43.136 362.08 39.296 362.08 35.776C362.08 32.576 361.6 30.24 360.64 28.768C359.68 27.232 358.4 26.24 356.8 25.792C357.696 24.256 358.624 23.136 359.584 22.432C360.608 21.728 361.536 21.376 362.368 21.376C363.712 21.376 365.024 22.24 366.304 23.968C367.584 25.696 368.224 28.384 368.224 32.032C368.224 35.552 367.552 39.552 366.208 44.032C364.928 48.512 363.168 53.184 360.928 58.048C358.688 62.848 356.128 67.52 353.248 72.064C350.368 76.608 347.36 80.704 344.224 84.352C341.088 88 337.984 90.912 334.912 93.088C331.84 95.264 328.992 96.352 326.368 96.352C325.152 96.352 323.904 96.096 322.624 95.584C321.344 95.072 320.256 94.272 319.36 93.184C318.528 92.16 318.112 90.816 318.112 89.152C318.112 88.192 318.272 86.976 318.592 85.504C318.976 83.968 319.456 82.304 320.032 80.512C316.768 85.12 313.408 88.896 309.952 91.84C306.56 94.848 303.296 96.352 300.16 96.352ZM368.702 92.512C366.718 92.512 365.054 91.84 363.71 90.496C362.302 89.216 361.598 87.232 361.598 84.544C361.598 82.24 362.11 79.776 363.134 77.152C364.158 74.464 365.566 71.84 367.358 69.28C369.15 66.656 371.166 64.288 373.406 62.176C375.71 60 378.11 58.272 380.606 56.992C383.166 55.712 385.694 55.072 388.19 55.072C390.686 55.072 392.766 55.744 394.43 57.088C396.094 58.368 396.926 60.096 396.926 62.272C396.926 63.872 396.478 64.96 395.582 65.536C394.75 66.112 393.63 66.4 392.222 66.4C392.35 65.888 392.446 65.344 392.51 64.768C392.638 64.128 392.702 63.552 392.702 63.04C392.702 61.568 392.35 60.32 391.646 59.296C390.942 58.208 389.726 57.664 387.998 57.664C386.206 57.664 384.382 58.304 382.526 59.584C380.67 60.8 378.878 62.464 377.15 64.576C375.422 66.624 373.886 68.864 372.542 71.296C371.198 73.728 370.142 76.128 369.374 78.496C368.606 80.864 368.222 82.976 368.222 84.832C368.222 87.328 369.086 88.576 370.814 88.576C372.286 88.576 373.886 87.904 375.614 86.56C377.342 85.152 379.102 83.392 380.894 81.28C382.75 79.104 384.51 76.864 386.174 74.56C387.838 72.256 389.31 70.144 390.59 68.224C390.846 67.84 391.006 67.648 391.07 67.648C391.454 67.712 391.934 67.84 392.51 68.032C393.15 68.224 393.694 68.48 394.142 68.8C394.59 69.12 394.814 69.536 394.814 70.048C394.814 70.624 394.526 71.424 393.95 72.448C393.374 73.408 392.734 74.528 392.03 75.808C391.326 77.088 390.686 78.4 390.11 79.744C389.534 81.024 389.246 82.24 389.246 83.392C389.246 84.352 389.502 85.312 390.014 86.272C390.526 87.168 391.358 87.616 392.51 87.616C394.238 87.616 396.51 86.368 399.326 83.872C402.142 81.312 404.99 77.504 407.87 72.448L408.83 73.408C407.486 76.864 405.758 79.904 403.646 82.528C401.534 85.152 399.262 87.2 396.83 88.672C394.462 90.144 392.126 90.88 389.822 90.88C387.454 90.88 385.694 90.176 384.542 88.768C383.454 87.36 382.91 85.824 382.91 84.16C382.91 83.776 382.942 83.36 383.006 82.912C383.07 82.4 383.134 81.888 383.198 81.376C380.446 85.088 377.918 87.872 375.614 89.728C373.374 91.584 371.07 92.512 368.702 92.512ZM413.874 90.88C411.122 90.88 409.138 89.92 407.922 88C406.77 86.144 406.194 83.808 406.194 80.992C406.194 77.92 406.77 74.272 407.922 70.048C409.074 65.824 410.578 61.376 412.434 56.704C414.354 52.032 416.434 47.488 418.674 43.072C420.914 38.592 423.154 34.528 425.394 30.88C427.634 27.232 429.682 24.32 431.538 22.144C433.458 19.968 434.962 18.88 436.05 18.88C436.754 18.88 437.33 19.296 437.778 20.128C438.226 20.896 438.578 21.856 438.834 23.008C439.09 24.096 439.218 25.088 439.218 25.984C439.218 27.712 438.77 29.984 437.874 32.8C437.042 35.552 435.826 38.656 434.226 42.112C432.69 45.504 430.834 48.96 428.658 52.48C426.546 55.936 424.21 59.264 421.65 62.464C419.154 65.664 416.498 68.416 413.682 70.72C413.298 72.448 412.978 74.144 412.722 75.808C412.53 77.408 412.434 78.944 412.434 80.416C412.434 82.912 412.786 84.768 413.49 85.984C414.194 87.2 415.25 87.808 416.658 87.808C418.386 87.808 420.082 87.04 421.746 85.504C423.474 83.968 425.074 82.048 426.546 79.744C428.082 77.376 429.394 74.944 430.482 72.448L431.922 73.216C429.362 78.656 426.578 82.976 423.57 86.176C420.562 89.312 417.33 90.88 413.874 90.88ZM414.546 67.456C416.786 65.216 418.962 62.656 421.074 59.776C423.186 56.832 425.138 53.792 426.93 50.656C428.786 47.52 430.418 44.48 431.826 41.536C433.234 38.592 434.322 35.968 435.09 33.664C435.858 31.296 436.242 29.472 436.242 28.192C436.242 27.552 436.146 27.136 435.954 26.944C435.826 26.752 435.698 26.656 435.57 26.656C435.058 26.656 434.162 27.488 432.882 29.152C431.666 30.752 430.226 32.928 428.562 35.68C426.898 38.432 425.202 41.568 423.474 45.088C421.746 48.608 420.082 52.288 418.482 56.128C416.946 59.968 415.634 63.744 414.546 67.456ZM457.106 91.648C455.314 91.648 453.778 91.04 452.498 89.824C451.218 88.608 450.194 87.072 449.426 85.216C448.722 83.36 448.178 81.472 447.794 79.552C447.474 77.568 447.314 75.84 447.314 74.368C448.018 74.368 449.042 74.208 450.386 73.888C451.73 73.504 453.106 72.96 454.514 72.256C455.922 71.488 457.106 70.528 458.066 69.376C459.09 68.16 459.602 66.752 459.602 65.152C459.602 63.808 459.122 62.752 458.162 61.984C457.202 61.216 456.082 60.832 454.802 60.832C452.818 60.832 450.962 61.536 449.234 62.944C447.506 64.288 445.938 66.08 444.53 68.32C443.186 70.496 441.97 72.832 440.882 75.328C439.794 77.824 438.866 80.192 438.098 82.432C437.33 84.672 436.69 86.528 436.178 88C435.794 89.152 435.25 89.92 434.546 90.304C433.842 90.752 433.106 90.976 432.338 90.976C431.25 90.976 430.45 90.528 429.938 89.632C429.49 88.736 429.202 87.616 429.074 86.272C429.01 84.864 428.978 83.424 428.978 81.952C428.978 78.624 429.522 74.784 430.61 70.432C431.698 66.08 433.138 61.568 434.93 56.896C436.786 52.16 438.802 47.584 440.978 43.168C443.154 38.752 445.33 34.752 447.506 31.168C449.682 27.584 451.698 24.736 453.554 22.624C455.41 20.512 456.914 19.456 458.066 19.456C458.962 19.456 459.666 20.064 460.178 21.28C460.754 22.496 461.042 23.968 461.042 25.696C461.042 27.872 460.562 30.336 459.602 33.088C458.642 35.776 457.266 38.496 455.474 41.248C453.746 44 451.666 46.592 449.234 49.024C446.866 51.456 444.274 53.536 441.458 55.264C439.346 60.448 437.746 65.504 436.658 70.432C435.634 75.296 435.122 79.392 435.122 82.72C436.146 80.16 437.362 77.344 438.77 74.272C440.242 71.2 441.906 68.256 443.762 65.44C445.618 62.624 447.634 60.32 449.81 58.528C451.986 56.736 454.258 55.84 456.626 55.84C458.994 55.84 461.01 56.672 462.674 58.336C464.338 60 465.17 62.016 465.17 64.384C465.17 66.432 464.626 68.192 463.538 69.664C462.514 71.072 461.234 72.224 459.698 73.12C458.226 73.952 456.722 74.592 455.186 75.04C453.714 75.424 452.498 75.616 451.538 75.616C451.602 76.128 451.794 77.056 452.114 78.4C452.434 79.744 452.882 81.152 453.458 82.624C454.098 84.096 454.866 85.376 455.762 86.464C456.658 87.488 457.746 88 459.026 88C460.882 88 462.642 87.296 464.306 85.888C465.97 84.48 467.538 82.624 469.01 80.32C470.546 77.952 471.954 75.296 473.234 72.352L474.194 73.312C473.298 76.448 471.922 79.424 470.066 82.24C468.21 84.992 466.13 87.232 463.826 88.96C461.586 90.752 459.346 91.648 457.106 91.648ZM443.09 51.424C446.034 49.056 448.594 46.368 450.77 43.36C453.01 40.352 454.738 37.472 455.954 34.72C457.17 31.904 457.778 29.696 457.778 28.096C457.778 27.776 457.746 27.552 457.682 27.424C457.682 27.296 457.618 27.232 457.49 27.232C456.85 27.232 455.73 28.352 454.13 30.592C452.594 32.832 450.834 35.808 448.85 39.52C446.866 43.168 444.946 47.136 443.09 51.424ZM481.806 92.224C477.902 92.224 474.958 91.136 472.974 88.96C471.053 86.848 470.093 84.224 470.093 81.088C470.093 78.208 470.797 75.168 472.206 71.968C473.678 68.768 475.598 65.76 477.966 62.944C480.398 60.128 483.054 57.856 485.934 56.128C488.814 54.336 491.662 53.44 494.478 53.44C495.95 53.44 497.294 53.824 498.51 54.592C499.79 55.36 500.43 56.928 500.43 59.296C500.43 61.728 499.694 64.032 498.222 66.208C496.814 68.32 494.926 70.208 492.558 71.872C490.254 73.536 487.694 74.912 484.878 76C482.126 77.024 479.374 77.664 476.622 77.92C476.494 78.56 476.398 79.168 476.334 79.744C476.27 80.32 476.238 80.864 476.238 81.376C476.238 82.336 476.334 83.296 476.526 84.256C476.782 85.216 477.198 86.112 477.773 86.944C478.35 87.712 479.118 88.32 480.078 88.768C481.102 89.216 482.35 89.44 483.822 89.44C486.574 89.44 489.294 88.672 491.982 87.136C494.67 85.536 497.166 83.456 499.47 80.896C501.774 78.336 503.726 75.52 505.326 72.448L506.478 73.312C504.75 77.152 502.542 80.48 499.854 83.296C497.23 86.112 494.35 88.288 491.214 89.824C488.142 91.424 485.006 92.224 481.806 92.224ZM477.102 76.096C478.83 75.52 480.782 74.688 482.958 73.6C485.134 72.448 487.214 71.104 489.198 69.568C491.246 68.032 492.91 66.336 494.19 64.48C495.534 62.624 496.206 60.672 496.206 58.624C496.206 57.92 496.078 57.376 495.822 56.992C495.566 56.608 495.022 56.416 494.19 56.416C492.654 56.416 491.022 57.024 489.294 58.24C487.566 59.392 485.902 60.928 484.302 62.848C482.702 64.768 481.262 66.88 479.982 69.184C478.702 71.488 477.742 73.792 477.102 76.096ZM520.014 90.496C517.838 90.496 516.11 89.92 514.83 88.768C513.614 87.616 513.006 86.112 513.006 84.256C513.006 82.336 513.454 80.32 514.35 78.208C515.246 76.096 516.11 74.016 516.942 71.968C517.838 69.856 518.286 67.968 518.286 66.304C518.286 64.256 517.678 62.752 516.462 61.792C515.31 60.768 514.126 59.84 512.91 59.008C511.438 62.784 509.902 66.368 508.302 69.76C506.702 73.152 505.39 75.712 504.366 77.44L503.502 75.808C504.398 74.144 505.55 71.712 506.958 68.512C508.43 65.312 509.87 61.664 511.278 57.568C510.638 56.928 510.318 56.16 510.318 55.264C510.318 53.344 510.862 51.776 511.95 50.56C513.038 49.344 513.838 48.736 514.35 48.736C515.054 48.736 515.438 49.056 515.502 49.696C515.63 50.272 515.694 50.72 515.694 51.04C515.694 51.36 515.502 52 515.118 52.96C514.798 53.856 514.638 54.4 514.638 54.592C514.638 55.488 515.118 56.32 516.078 57.088C517.102 57.792 518.254 58.624 519.534 59.584C520.814 60.48 521.934 61.6 522.894 62.944C523.918 64.224 524.43 65.888 524.43 67.936C524.43 69.856 524.014 71.808 523.182 73.792C522.414 75.776 521.614 77.664 520.782 79.456C520.014 81.248 519.63 82.816 519.63 84.16C519.63 85.312 519.918 86.08 520.494 86.464C521.07 86.848 521.742 87.04 522.51 87.04C524.046 87.04 525.614 86.56 527.214 85.6C528.878 84.64 530.478 83.424 532.014 81.952C533.55 80.48 534.926 78.944 536.142 77.344C537.358 75.68 538.254 74.144 538.83 72.736L540.078 73.696C538.862 76.384 537.198 79.04 535.086 81.664C532.974 84.224 530.606 86.336 527.982 88C525.422 89.664 522.766 90.496 520.014 90.496Z" fill="black"/>
<path d="M324.352 179.352C322.752 179.352 321.248 178.904 319.84 178.008C318.432 177.112 317.728 175.96 317.728 174.552C317.728 173.848 317.888 172.984 318.208 171.96C318.528 171 318.816 170.104 319.072 169.272C321.12 163 323.04 157.144 324.832 151.704C326.624 146.264 328.416 140.984 330.208 135.864C332 130.744 333.888 125.624 335.872 120.504C337.92 115.384 340.192 110.04 342.688 104.472C340.256 104.92 338.08 105.592 336.16 106.488C334.304 107.32 332.8 108.088 331.648 108.792C330.496 109.432 329.728 109.752 329.344 109.752C329.088 109.752 328.704 109.624 328.192 109.368C327.744 109.048 327.328 108.696 326.944 108.312C326.56 107.864 326.368 107.48 326.368 107.16C328.032 106.456 329.984 105.688 332.224 104.856C334.528 104.024 336.992 103.32 339.616 102.744C342.24 102.168 344.896 101.88 347.584 101.88C350.4 101.88 353.248 102.264 356.128 103.032C359.072 103.8 361.76 104.984 364.192 106.584C366.624 108.12 368.576 110.04 370.048 112.344C371.52 114.648 372.256 117.336 372.256 120.408C372.256 123.736 371.52 126.616 370.048 129.048C368.576 131.416 366.624 133.432 364.192 135.096C361.76 136.696 359.136 138.008 356.32 139.032C353.504 139.992 350.688 140.76 347.872 141.336C345.12 141.848 342.656 142.2 340.48 142.392C338.304 142.52 336.704 142.584 335.68 142.584H334.72C332.8 149.176 330.944 155.672 329.152 162.072C327.424 168.472 325.824 174.232 324.352 179.352ZM335.104 141.048C338.624 140.856 342.176 140.28 345.76 139.32C349.408 138.36 352.736 136.984 355.744 135.192C358.752 133.336 361.184 131.064 363.04 128.376C364.896 125.624 365.824 122.424 365.824 118.776C365.824 115.32 364.992 112.504 363.328 110.328C361.728 108.152 359.584 106.552 356.896 105.528C354.272 104.44 351.456 103.896 348.448 103.896C346.08 108.568 343.776 114.168 341.536 120.696C339.296 127.224 337.152 134.008 335.104 141.048ZM363.921 175.512C361.937 175.512 360.273 174.84 358.928 173.496C357.52 172.216 356.816 170.232 356.816 167.544C356.816 165.24 357.328 162.776 358.352 160.152C359.376 157.464 360.785 154.84 362.577 152.28C364.369 149.656 366.385 147.288 368.625 145.176C370.929 143 373.329 141.272 375.825 139.992C378.385 138.712 380.913 138.072 383.409 138.072C385.905 138.072 387.985 138.744 389.649 140.088C391.313 141.368 392.145 143.096 392.145 145.272C392.145 146.872 391.697 147.96 390.801 148.536C389.969 149.112 388.849 149.4 387.441 149.4C387.569 148.888 387.665 148.344 387.729 147.768C387.857 147.128 387.921 146.552 387.921 146.04C387.921 144.568 387.569 143.32 386.865 142.296C386.161 141.208 384.945 140.664 383.217 140.664C381.425 140.664 379.601 141.304 377.745 142.584C375.889 143.8 374.097 145.464 372.369 147.576C370.641 149.624 369.105 151.864 367.761 154.296C366.417 156.728 365.361 159.128 364.593 161.496C363.825 163.864 363.441 165.976 363.441 167.832C363.441 170.328 364.305 171.576 366.033 171.576C367.505 171.576 369.105 170.904 370.833 169.56C372.561 168.152 374.321 166.392 376.113 164.28C377.969 162.104 379.729 159.864 381.393 157.56C383.057 155.256 384.529 153.144 385.809 151.224C386.065 150.84 386.225 150.648 386.289 150.648C386.673 150.712 387.153 150.84 387.729 151.032C388.369 151.224 388.913 151.48 389.361 151.8C389.809 152.12 390.033 152.536 390.033 153.048C390.033 153.624 389.745 154.424 389.169 155.448C388.593 156.408 387.953 157.528 387.249 158.808C386.545 160.088 385.905 161.4 385.329 162.744C384.753 164.024 384.465 165.24 384.465 166.392C384.465 167.352 384.721 168.312 385.233 169.272C385.745 170.168 386.577 170.616 387.729 170.616C389.457 170.616 391.729 169.368 394.545 166.872C397.361 164.312 400.209 160.504 403.089 155.448L404.049 156.408C402.705 159.864 400.977 162.904 398.865 165.528C396.753 168.152 394.481 170.2 392.049 171.672C389.681 173.144 387.345 173.88 385.041 173.88C382.673 173.88 380.913 173.176 379.761 171.768C378.673 170.36 378.129 168.824 378.129 167.16C378.129 166.776 378.161 166.36 378.225 165.912C378.289 165.4 378.353 164.888 378.417 164.376C375.665 168.088 373.137 170.872 370.833 172.728C368.593 174.584 366.289 175.512 363.921 175.512ZM417.733 173.496C415.557 173.496 413.829 172.92 412.549 171.768C411.333 170.616 410.725 169.112 410.725 167.256C410.725 165.336 411.173 163.32 412.069 161.208C412.965 159.096 413.829 157.016 414.661 154.968C415.557 152.856 416.005 150.968 416.005 149.304C416.005 147.256 415.397 145.752 414.181 144.792C413.029 143.768 411.845 142.84 410.629 142.008C409.157 145.784 407.621 149.368 406.021 152.76C404.421 156.152 403.109 158.712 402.085 160.44L401.221 158.808C402.117 157.144 403.269 154.712 404.677 151.512C406.149 148.312 407.589 144.664 408.997 140.568C408.357 139.928 408.037 139.16 408.037 138.264C408.037 136.344 408.581 134.776 409.669 133.56C410.757 132.344 411.557 131.736 412.069 131.736C412.773 131.736 413.157 132.056 413.221 132.696C413.349 133.272 413.413 133.72 413.413 134.04C413.413 134.36 413.221 135 412.837 135.96C412.517 136.856 412.357 137.4 412.357 137.592C412.357 138.488 412.837 139.32 413.797 140.088C414.821 140.792 415.973 141.624 417.253 142.584C418.533 143.48 419.653 144.6 420.613 145.944C421.637 147.224 422.149 148.888 422.149 150.936C422.149 152.856 421.733 154.808 420.901 156.792C420.133 158.776 419.333 160.664 418.501 162.456C417.733 164.248 417.349 165.816 417.349 167.16C417.349 168.312 417.637 169.08 418.213 169.464C418.789 169.848 419.461 170.04 420.229 170.04C421.765 170.04 423.333 169.56 424.933 168.6C426.597 167.64 428.197 166.424 429.733 164.952C431.269 163.48 432.645 161.944 433.861 160.344C435.077 158.68 435.973 157.144 436.549 155.736L437.797 156.696C436.581 159.384 434.917 162.04 432.805 164.664C430.693 167.224 428.325 169.336 425.701 171C423.141 172.664 420.485 173.496 417.733 173.496ZM439.108 175.512C437.124 175.512 435.46 174.84 434.116 173.496C432.708 172.216 432.004 170.232 432.004 167.544C432.004 165.24 432.516 162.776 433.54 160.152C434.564 157.464 435.972 154.84 437.764 152.28C439.556 149.656 441.572 147.288 443.812 145.176C446.116 143 448.516 141.272 451.012 139.992C453.572 138.712 456.1 138.072 458.596 138.072C461.092 138.072 463.172 138.744 464.836 140.088C466.5 141.368 467.332 143.096 467.332 145.272C467.332 146.872 466.884 147.96 465.988 148.536C465.156 149.112 464.036 149.4 462.628 149.4C462.756 148.888 462.852 148.344 462.916 147.768C463.044 147.128 463.108 146.552 463.108 146.04C463.108 144.568 462.756 143.32 462.052 142.296C461.348 141.208 460.132 140.664 458.404 140.664C456.612 140.664 454.788 141.304 452.932 142.584C451.076 143.8 449.284 145.464 447.556 147.576C445.828 149.624 444.292 151.864 442.948 154.296C441.604 156.728 440.548 159.128 439.78 161.496C439.012 163.864 438.628 165.976 438.628 167.832C438.628 170.328 439.492 171.576 441.22 171.576C442.692 171.576 444.292 170.904 446.02 169.56C447.748 168.152 449.508 166.392 451.3 164.28C453.156 162.104 454.916 159.864 456.58 157.56C458.244 155.256 459.716 153.144 460.996 151.224C461.252 150.84 461.412 150.648 461.476 150.648C461.86 150.712 462.34 150.84 462.916 151.032C463.556 151.224 464.1 151.48 464.548 151.8C464.996 152.12 465.22 152.536 465.22 153.048C465.22 153.624 464.932 154.424 464.356 155.448C463.78 156.408 463.14 157.528 462.436 158.808C461.732 160.088 461.092 161.4 460.516 162.744C459.94 164.024 459.652 165.24 459.652 166.392C459.652 167.352 459.908 168.312 460.42 169.272C460.932 170.168 461.764 170.616 462.916 170.616C464.644 170.616 466.916 169.368 469.732 166.872C472.548 164.312 475.396 160.504 478.276 155.448L479.236 156.408C477.892 159.864 476.164 162.904 474.052 165.528C471.94 168.152 469.668 170.2 467.236 171.672C464.868 173.144 462.532 173.88 460.228 173.88C457.86 173.88 456.1 173.176 454.948 171.768C453.86 170.36 453.316 168.824 453.316 167.16C453.316 166.776 453.348 166.36 453.412 165.912C453.476 165.4 453.54 164.888 453.604 164.376C450.852 168.088 448.324 170.872 446.02 172.728C443.78 174.584 441.476 175.512 439.108 175.512ZM481.977 173.88C480.889 173.88 479.769 173.592 478.617 173.016C477.529 172.504 476.633 171.64 475.928 170.424C475.16 169.208 474.776 167.672 474.776 165.816C474.776 163.704 475.288 161.336 476.312 158.712C477.337 156.088 478.713 153.496 480.441 150.936C482.169 148.312 484.153 145.912 486.393 143.736C488.633 141.496 490.969 139.736 493.401 138.456C495.833 137.112 498.233 136.44 500.601 136.44C501.945 136.44 502.969 136.696 503.673 137.208C504.441 137.656 504.825 138.392 504.825 139.416C504.825 139.672 504.793 139.896 504.729 140.088C504.729 140.28 504.697 140.504 504.633 140.76C504.313 140.248 503.833 139.896 503.193 139.704C502.617 139.448 501.881 139.32 500.984 139.32C498.937 139.32 496.921 139.96 494.937 141.24C493.017 142.456 491.225 144.088 489.561 146.136C487.961 148.12 486.553 150.264 485.337 152.568C484.121 154.872 483.161 157.112 482.457 159.288C481.817 161.4 481.497 163.192 481.497 164.664C481.497 166.072 481.817 167.192 482.457 168.024C483.097 168.856 483.929 169.272 484.953 169.272C486.681 169.272 488.761 168.184 491.193 166.008C493.689 163.832 496.217 160.76 498.777 156.792C501.337 152.824 503.641 148.184 505.689 142.872C507.097 139.16 508.537 135.384 510.009 131.544C511.545 127.704 513.081 124.024 514.617 120.504C516.153 116.92 517.625 113.752 519.033 111C520.505 108.184 521.881 105.976 523.161 104.376C524.505 102.712 525.689 101.88 526.713 101.88C527.225 101.88 527.673 102.104 528.057 102.552C528.441 102.936 528.633 103.448 528.633 104.088C528.633 105.112 528.089 106.872 527 109.368C525.977 111.8 524.601 114.744 522.873 118.2C521.209 121.592 519.449 125.304 517.593 129.336C515.737 133.368 513.945 137.464 512.217 141.624C510.553 145.784 509.177 149.816 508.089 153.72C507.065 157.56 506.553 161.08 506.553 164.28C506.553 166.072 506.649 167.416 506.841 168.312C507.033 169.208 507.673 169.656 508.761 169.656C510.105 169.656 511.673 169.08 513.465 167.928C515.257 166.776 517.049 165.144 518.841 163.032C520.633 160.92 522.201 158.392 523.545 155.448L524.697 156.312C523.481 159.576 521.817 162.52 519.705 165.144C517.593 167.704 515.321 169.72 512.889 171.192C510.521 172.728 508.249 173.496 506.073 173.496C503.705 173.496 502.041 172.696 501.081 171.096C500.185 169.56 499.737 167.96 499.737 166.296C499.737 165.208 499.897 163.768 500.217 161.976C500.537 160.184 500.985 158.2 501.561 156.024C499.513 159.416 497.337 162.488 495.033 165.24C492.729 167.928 490.457 170.04 488.217 171.576C486.041 173.112 483.961 173.88 481.977 173.88ZM528.6 173.496C526.104 173.496 524.248 172.696 523.032 171.096C521.815 169.56 521.207 167.672 521.207 165.432C521.207 163.96 521.463 162.104 521.976 159.864C522.552 157.624 523.288 155.288 524.184 152.856C525.08 150.36 526.104 148.024 527.256 145.848C528.472 143.672 529.752 141.912 531.096 140.568C532.44 139.16 533.752 138.456 535.032 138.456C535.608 138.456 536.088 138.648 536.472 139.032C536.92 139.352 537.144 139.864 537.144 140.568C537.144 141.336 536.632 142.584 535.608 144.312C534.648 146.04 533.496 148.024 532.152 150.264C530.808 152.504 529.624 154.872 528.6 157.368C527.64 159.8 527.16 162.136 527.16 164.376C527.16 166.68 527.544 168.216 528.312 168.984C529.08 169.752 530.264 170.136 531.864 170.136C534.04 170.136 536.344 169.048 538.776 166.872C541.272 164.696 543.896 160.888 546.648 155.448L547.512 156.408C545.656 161.912 542.968 166.136 539.448 169.08C535.992 172.024 532.376 173.496 528.6 173.496ZM540.12 129.528C539.096 129.528 538.168 129.272 537.336 128.76C536.568 128.248 536.184 127.448 536.184 126.36C536.184 125.016 536.952 123.864 538.488 122.904C540.088 121.88 541.656 121.368 543.192 121.368C544.152 121.368 544.92 121.592 545.496 122.04C546.072 122.488 546.359 123.256 546.359 124.344C546.359 125.56 545.688 126.744 544.344 127.896C543.064 128.984 541.656 129.528 540.12 129.528ZM554.924 175.896C551.916 175.896 549.516 175.224 547.724 173.88C545.996 172.6 544.78 171 544.076 169.08C543.308 167.16 542.924 165.24 542.924 163.32C542.924 161.4 543.18 159.928 543.692 158.904C544.204 157.88 544.812 157.112 545.516 156.6C546.284 156.088 546.988 155.704 547.628 155.448C548.332 155.192 548.812 154.936 549.068 154.68C550.988 152.568 552.748 150.36 554.348 148.056C555.948 145.752 557.356 143.32 558.572 140.76V139.608C558.572 137.24 558.956 135.576 559.724 134.616C560.556 133.592 561.42 133.08 562.316 133.08C562.828 133.08 563.212 133.208 563.468 133.464C563.724 133.72 563.852 134.008 563.852 134.328C563.852 134.648 563.756 135.16 563.564 135.864C563.372 136.568 563.276 137.464 563.276 138.552C563.276 140.664 563.692 142.968 564.524 145.464C565.356 147.896 566.188 150.488 567.02 153.24C567.852 155.928 568.268 158.744 568.268 161.688C568.268 162.52 568.204 163.352 568.076 164.184C568.012 164.952 567.884 165.688 567.692 166.392C569.932 166.008 572.044 165.016 574.028 163.416C576.012 161.752 577.932 159.128 579.788 155.544L580.652 156.504C579.436 160.024 577.612 162.712 575.18 164.568C572.748 166.36 570.092 167.48 567.212 167.928C566.188 170.68 564.556 172.696 562.316 173.976C560.14 175.256 557.676 175.896 554.924 175.896ZM555.116 172.536C555.884 172.536 556.908 172.28 558.188 171.768C559.468 171.256 560.46 169.944 561.164 167.832C558.476 167.32 556.076 166.264 553.964 164.664C551.916 163.064 550.38 161.464 549.356 159.864C547.948 159.928 547.244 161.048 547.244 163.224C547.244 165.528 547.916 167.672 549.26 169.656C550.668 171.576 552.62 172.536 555.116 172.536ZM561.644 166.296C561.772 165.656 561.868 164.984 561.932 164.28C561.996 163.576 562.028 162.744 562.028 161.784C562.028 158.776 561.644 155.8 560.876 152.856C560.172 149.848 559.564 147.032 559.052 144.408C557.58 146.84 556.012 149.176 554.348 151.416C552.748 153.592 551.212 155.416 549.74 156.888C550.7 158.936 552.172 160.856 554.156 162.648C556.204 164.44 558.7 165.656 561.644 166.296ZM588.306 175.224C584.402 175.224 581.458 174.136 579.474 171.96C577.553 169.848 576.593 167.224 576.593 164.088C576.593 161.208 577.297 158.168 578.706 154.968C580.178 151.768 582.098 148.76 584.466 145.944C586.898 143.128 589.554 140.856 592.434 139.128C595.314 137.336 598.162 136.44 600.978 136.44C602.45 136.44 603.794 136.824 605.01 137.592C606.29 138.36 606.93 139.928 606.93 142.296C606.93 144.728 606.194 147.032 604.722 149.208C603.314 151.32 601.426 153.208 599.058 154.872C596.754 156.536 594.194 157.912 591.378 159C588.626 160.024 585.874 160.664 583.122 160.92C582.994 161.56 582.898 162.168 582.834 162.744C582.77 163.32 582.738 163.864 582.738 164.376C582.738 165.336 582.834 166.296 583.026 167.256C583.282 168.216 583.698 169.112 584.273 169.944C584.85 170.712 585.618 171.32 586.578 171.768C587.602 172.216 588.85 172.44 590.322 172.44C593.074 172.44 595.794 171.672 598.482 170.136C601.17 168.536 603.666 166.456 605.97 163.896C608.274 161.336 610.226 158.52 611.826 155.448L612.978 156.312C611.25 160.152 609.042 163.48 606.354 166.296C603.73 169.112 600.85 171.288 597.714 172.824C594.642 174.424 591.506 175.224 588.306 175.224ZM583.602 159.096C585.33 158.52 587.282 157.688 589.458 156.6C591.634 155.448 593.714 154.104 595.698 152.568C597.746 151.032 599.41 149.336 600.69 147.48C602.034 145.624 602.706 143.672 602.706 141.624C602.706 140.92 602.578 140.376 602.322 139.992C602.066 139.608 601.522 139.416 600.69 139.416C599.154 139.416 597.522 140.024 595.794 141.24C594.066 142.392 592.402 143.928 590.802 145.848C589.202 147.768 587.762 149.88 586.482 152.184C585.202 154.488 584.242 156.792 583.602 159.096Z" fill="black"/>
<path d="M32 20.9H75V177.996H0L32 20.9Z" fill="white"/>
<path d="M237 20.9H194V177.996H269L237 20.9Z" fill="white"/>
<path d="M108 20.9042H161V178H108V100.88V20.9042Z" fill="white"/>
<path d="M181 127.5C181 128.849 180.018 130.363 177.674 131.922C175.368 133.456 171.965 134.875 167.67 136.083C159.095 138.495 147.19 140 134 140C120.81 140 108.905 138.495 100.33 136.083C96.0349 134.875 92.6319 133.456 90.3258 131.922C87.9816 130.363 87 128.849 87 127.5C87 126.151 87.9816 124.637 90.3258 123.078C92.6319 121.544 96.0349 120.125 100.33 118.917C108.905 116.505 120.81 115 134 115C147.19 115 159.095 116.505 167.67 118.917C171.965 120.125 175.368 121.544 177.674 123.078C180.018 124.637 181 126.151 181 127.5Z" stroke="#659AB8" stroke-width="2"/>
<path d="M134.16 141C108.56 100.6 99.66 73 101.16 65H167.16C167.66 75.5 159.76 100.6 134.16 141Z" fill="#93D0F2"/>
<ellipse cx="134.16" cy="66.5" rx="33" ry="34.5" fill="#93D0F2"/>
<ellipse cx="134.5" cy="61" rx="4.5" ry="8" fill="#659AB8"/>
</svg>
